<?xml version="1.0" encoding="UTF-8"?>
<svg xmlns="http://www.w3.org/2000/svg" width="339" height="216" viewBox="0 0 339 216" fill="none">
  <path d="M50.1707 126.805H41.1463H32.1219H23.0976H14.0732H5.04877V117.781V108.756H14.0732H23.0976H32.1219H41.1463H50.1707V99.7319V90.7075H41.1463V99.7319H32.1219H23.0976H14.0732V90.7075H5.04877V81.6832V72.6588V63.6344V54.61V45.5856V36.5612H14.0732V27.5368H23.0976H32.1219H41.1463V36.5612H50.1707V27.5368H59.1951H68.2195V36.5612V45.5856V54.61V63.6344V72.6588V81.6832V90.7075V99.7319V108.756V117.781H59.1951V126.805H50.1707ZM32.1219 81.6832H41.1463V72.6588H50.1707V63.6344V54.61H41.1463V45.5856H32.1219H23.0976V54.61V63.6344V72.6588V81.6832H32.1219ZM122.366 99.7319H113.341H104.317H95.2927V90.7075H86.2683V81.6832V72.6588V63.6344V54.61V45.5856V36.5612H95.2927V27.5368H104.317H113.341H122.366H131.39V36.5612H140.415V45.5856V54.61V63.6344H131.39H122.366H113.341H104.317V72.6588V81.6832H113.341H122.366V72.6588H131.39H140.415V81.6832V90.7075H131.39V99.7319H122.366ZM113.341 54.61H122.366V45.5856H113.341H104.317V54.61H113.341ZM176.512 99.7319H167.488V90.7075H158.463V81.6832V72.6588V63.6344V54.61V45.5856H149.439V36.5612V27.5368H158.463V18.5124V9.48803V0.463641H167.488H176.512V9.48803V18.5124V27.5368H185.537V36.5612V45.5856H176.512V54.61V63.6344V72.6588V81.6832H185.537V90.7075V99.7319H176.512ZM257.732 99.7319H248.707V90.7075V81.6832V72.6588V63.6344V54.61V45.5856V36.5612V27.5368H257.732H266.756V36.5612V45.5856V54.61V63.6344V72.6588V81.6832V90.7075V99.7319H257.732ZM257.732 18.5124H248.707V9.48803V0.463641H257.732H266.756V9.48803V18.5124H257.732ZM329.927 99.7319H320.902V90.7075V81.6832V72.6588V63.6344V54.61V45.5856H311.878H302.854V54.61V63.6344V72.6588V81.6832V90.7075V99.7319H293.829H284.805V90.7075V81.6832V72.6588V63.6344V54.61V45.5856V36.5612V27.5368H293.829H302.854H311.878H320.902H329.927V36.5612H338.951V45.5856V54.61V63.6344V72.6588V81.6832V90.7075V99.7319H329.927ZM27.6098 215.732H18.5854V206.708H9.56098V197.683V188.659V179.634V170.61V161.586H0.536591V152.561V143.537H9.56098V134.512V125.488V116.464H18.5854H27.6098V125.488V134.512V143.537H36.6342V152.561V161.586H27.6098V170.61V179.634V188.659V197.683H36.6342V206.708V215.732H27.6098ZM90.7805 215.732H81.7561H72.7317H63.7073V206.708H54.6829V197.683V188.659V179.634V170.61V161.586V152.561H63.7073V143.537H72.7317H81.7561H90.7805H99.8049V152.561H108.829V161.586V170.61V179.634V188.659V197.683V206.708H99.8049V215.732H90.7805ZM81.7561 197.683H90.7805V188.659V179.634V170.61V161.586H81.7561H72.7317V170.61V179.634V188.659V197.683H81.7561ZM172 215.732H162.976H153.951H144.927H135.902V206.708H126.878V197.683V188.659V179.634V170.61V161.586V152.561V143.537H135.902H144.927V152.561V161.586V170.61V179.634V188.659V197.683H153.951H162.976V188.659V179.634V170.61V161.586V152.561V143.537H172H181.024V152.561V161.586V170.61V179.634V188.659V197.683V206.708V215.732H172ZM235.171 215.732H226.146H217.122H208.098V206.708H199.073V197.683V188.659V179.634V170.61V161.586V152.561H208.098V143.537H217.122H226.146H235.171H244.195V152.561H253.22V161.586V170.61H244.195H235.171V161.586H226.146H217.122V170.61V179.634V188.659V197.683H226.146H235.171V188.659H244.195H253.22V197.683V206.708H244.195V215.732H235.171ZM325.415 215.732H316.39V206.708V197.683V188.659V179.634V170.61V161.586H307.366H298.341V170.61H289.317V179.634V188.659V197.683V206.708V215.732H280.293H271.268V206.708V197.683V188.659V179.634V170.61V161.586V152.561V143.537V134.512V125.488V116.464H280.293H289.317V125.488V134.512V143.537V152.561H298.341V143.537H307.366H316.39H325.415V152.561H334.439V161.586V170.61V179.634V188.659V197.683V206.708V215.732H325.415Z" fill="#1D2027"></path>
</svg>
