<?xml version="1.0" encoding="UTF-8"?>
<svg xmlns="http://www.w3.org/2000/svg" width="1501" height="264" viewBox="0 0 1501 264" fill="none">
  <path d="M94.25 263.25H75.5H56.75H38H19.25H0.5V244.5V225.75H19.25H38H56.75H75.5H94.25V207V188.25H75.5V207H56.75H38H19.25V188.25H0.5V169.5V150.75V132V113.25V94.5V75.75H19.25V57H38H56.75H75.5V75.75H94.25V57H113H131.75V75.75V94.5V113.25V132V150.75V169.5V188.25V207V225.75V244.5H113V263.25H94.25ZM56.75 169.5H75.5V150.75H94.25V132V113.25H75.5V94.5H56.75H38V113.25V132V150.75V169.5H56.75ZM244.25 207H225.5H206.75H188V188.25H169.25V169.5V150.75V132V113.25V94.5V75.75H188V57H206.75H225.5H244.25H263V75.75H281.75V94.5V113.25V132H263H244.25H225.5H206.75V150.75V169.5H225.5H244.25V150.75H263H281.75V169.5V188.25H263V207H244.25ZM225.5 113.25H244.25V94.5H225.5H206.75V113.25H225.5ZM356.75 207H338V188.25H319.25V169.5V150.75V132V113.25V94.5H300.5V75.75V57H319.25V38.25V19.5V0.75H338H356.75V19.5V38.25V57H375.5V75.75V94.5H356.75V113.25V132V150.75V169.5H375.5V188.25V207H356.75ZM525.5 207H506.75V188.25V169.5V150.75V132V113.25V94.5V75.75V57H525.5H544.25V75.75V94.5V113.25V132V150.75V169.5V188.25V207H525.5ZM525.5 38.25H506.75V19.5V0.75H525.5H544.25V19.5V38.25H525.5ZM675.5 207H656.75V188.25V169.5V150.75V132V113.25V94.5H638H619.25V113.25V132V150.75V169.5V188.25V207H600.5H581.75V188.25V169.5V150.75V132V113.25V94.5V75.75V57H600.5H619.25H638H656.75H675.5V75.75H694.25V94.5V113.25V132V150.75V169.5V188.25V207H675.5ZM863 207H844.25V188.25H825.5V169.5V150.75V132V113.25V94.5H806.75V75.75V57H825.5V38.25V19.5V0.75H844.25H863V19.5V38.25V57H881.75V75.75V94.5H863V113.25V132V150.75V169.5H881.75V188.25V207H863ZM994.25 207H975.5H956.75H938V188.25H919.25V169.5V150.75V132V113.25V94.5V75.75H938V57H956.75H975.5H994.25H1013V75.75H1031.75V94.5V113.25V132V150.75V169.5V188.25H1013V207H994.25ZM975.5 169.5H994.25V150.75V132V113.25V94.5H975.5H956.75V113.25V132V150.75V169.5H975.5ZM1163 207H1144.25H1125.5H1106.75H1088V188.25H1069.25V169.5V150.75V132V113.25V94.5V75.75V57H1088H1106.75V75.75V94.5V113.25V132V150.75V169.5H1125.5H1144.25V150.75V132V113.25V94.5V75.75V57H1163H1181.75V75.75V94.5V113.25V132V150.75V169.5V188.25V207H1163ZM1294.25 207H1275.5H1256.75H1238V188.25H1219.25V169.5V150.75V132V113.25V94.5V75.75H1238V57H1256.75H1275.5H1294.25H1313V75.75H1331.75V94.5V113.25H1313H1294.25V94.5H1275.5H1256.75V113.25V132V150.75V169.5H1275.5H1294.25V150.75H1313H1331.75V169.5V188.25H1313V207H1294.25ZM1481.75 207H1463V188.25V169.5V150.75V132V113.25V94.5H1444.25H1425.5V113.25H1406.75V132V150.75V169.5V188.25V207H1388H1369.25V188.25V169.5V150.75V132V113.25V94.5V75.75V57V38.25V19.5V0.75H1388H1406.75V19.5V38.25V57V75.75H1425.5V57H1444.25H1463H1481.75V75.75H1500.5V94.5V113.25V132V150.75V169.5V188.25V207H1481.75Z" fill="#1D2027"></path>
</svg>
