<svg xmlns="http://www.w3.org/2000/svg" width="407" height="66" viewBox="0 0 407 66" fill="none"><rect x="0.5" width="406" height="66" rx="33" fill="url(#paint0_linear_4251_84411)"></rect><path d="M34.856 32.7L35.72 29.1H36.98L37.907 32.7L38.546 37.2H38.582L38.87 33.06L40.247 25.5H41.84L39.392 39H37.763L36.899 34.95L36.368 30.45H36.332L35.81 34.95L34.928 39H33.326L30.842 25.5L32.408 25.32L33.92 33.06L34.199 37.2H34.235L34.856 32.7ZM51.513 37.839C51.327 38.031 51.123 38.208 50.901 38.37C50.679 38.532 50.433 38.673 50.163 38.793C49.893 38.907 49.593 38.994 49.263 39.054C48.939 39.12 48.576 39.153 48.174 39.153C47.376 39.153 46.686 39.012 46.104 38.73C45.522 38.448 45.042 38.07 44.664 37.596C44.286 37.122 44.007 36.579 43.827 35.967C43.647 35.355 43.557 34.716 43.557 34.05C43.557 33.624 43.599 33.204 43.683 32.79C43.773 32.37 43.899 31.971 44.061 31.593C44.229 31.215 44.436 30.864 44.682 30.54C44.934 30.216 45.222 29.937 45.546 29.703C45.876 29.469 46.239 29.286 46.635 29.154C47.037 29.016 47.475 28.947 47.949 28.947C48.597 28.947 49.182 29.052 49.704 29.262C50.226 29.472 50.67 29.766 51.036 30.144C51.402 30.522 51.684 30.978 51.882 31.512C52.08 32.04 52.179 32.622 52.179 33.258C52.179 33.444 52.173 33.648 52.161 33.87C52.149 34.092 52.131 34.302 52.107 34.5H45.267C45.267 34.962 45.339 35.391 45.483 35.787C45.627 36.177 45.822 36.516 46.068 36.804C46.32 37.086 46.614 37.308 46.95 37.47C47.292 37.632 47.661 37.713 48.057 37.713C48.441 37.713 48.768 37.686 49.038 37.632C49.314 37.572 49.545 37.5 49.731 37.416C49.923 37.332 50.082 37.242 50.208 37.146C50.334 37.05 50.442 36.96 50.532 36.876L51.513 37.839ZM50.595 33.15V32.754C50.595 32.412 50.526 32.097 50.388 31.809C50.256 31.521 50.073 31.272 49.839 31.062C49.611 30.846 49.344 30.678 49.038 30.558C48.738 30.438 48.42 30.378 48.084 30.378C47.682 30.378 47.328 30.444 47.022 30.576C46.722 30.702 46.464 30.867 46.248 31.071C46.032 31.269 45.858 31.488 45.726 31.728C45.594 31.968 45.498 32.196 45.438 32.412L44.907 33.438L46.572 33.15H50.595ZM60.2141 25.32L62.4641 25.5L59.3141 28.2H57.5141L60.2141 25.32ZM72.3351 30.54C71.7831 30.54 71.2821 30.645 70.8321 30.855C70.3821 31.059 69.9951 31.338 69.6711 31.692C69.3531 32.046 69.1071 32.463 68.9331 32.943C68.7591 33.423 68.6721 33.936 68.6721 34.482C68.6721 35.016 68.7471 35.484 68.8971 35.886C69.0531 36.288 69.2541 36.624 69.5001 36.894C69.7521 37.164 70.0341 37.368 70.3461 37.506C70.6581 37.638 70.9731 37.704 71.2911 37.704C71.5731 37.704 71.8401 37.656 72.0921 37.56C72.3441 37.464 72.5781 37.344 72.7941 37.2C73.0101 37.056 73.2051 36.9 73.3791 36.732C73.5531 36.558 73.7001 36.396 73.8201 36.246V30.54H72.3351ZM73.8201 39V37.542L73.0461 38.559C72.8301 38.703 72.5421 38.838 72.1821 38.964C71.8221 39.09 71.4081 39.153 70.9401 39.153C70.4001 39.153 69.8901 39.057 69.4101 38.865C68.9301 38.667 68.5101 38.37 68.1501 37.974C67.7901 37.572 67.5051 37.065 67.2951 36.453C67.0851 35.835 66.9801 35.106 66.9801 34.266C66.9801 33.546 67.1181 32.874 67.3941 32.25C67.6761 31.62 68.0571 31.071 68.5371 30.603C69.0171 30.135 69.5811 29.769 70.2291 29.505C70.8831 29.235 71.5821 29.1 72.3261 29.1H73.8201V24.42L75.4401 24.6V37.38L75.6201 39H73.8201ZM93.6252 26.22L93.9852 25.68L92.7252 26.04H90.9162L90.7362 24.6H95.2452V35.616C95.2452 36.012 95.2752 36.345 95.3352 36.615C95.3952 36.879 95.4762 37.095 95.5782 37.263C95.6802 37.425 95.8032 37.542 95.9472 37.614C96.0912 37.68 96.2472 37.713 96.4152 37.713C96.6552 37.713 96.8742 37.695 97.0722 37.659C97.2762 37.623 97.4562 37.578 97.6122 37.524C97.7742 37.47 97.9122 37.413 98.0262 37.353C98.1462 37.293 98.2422 37.242 98.3142 37.2L98.9352 38.289C98.8872 38.331 98.7882 38.4 98.6382 38.496C98.4882 38.592 98.2962 38.688 98.0622 38.784C97.8342 38.88 97.5642 38.964 97.2522 39.036C96.9462 39.114 96.6072 39.153 96.2352 39.153C95.6952 39.153 95.2542 39.054 94.9122 38.856C94.5702 38.658 94.3032 38.388 94.1112 38.046C93.9252 37.704 93.7962 37.308 93.7242 36.858C93.6582 36.402 93.6252 35.916 93.6252 35.4V26.22ZM106.583 39.153C105.917 39.153 105.305 39.024 104.747 38.766C104.195 38.502 103.718 38.142 103.316 37.686C102.914 37.224 102.599 36.681 102.371 36.057C102.149 35.433 102.038 34.755 102.038 34.023C102.038 33.297 102.146 32.625 102.362 32.007C102.578 31.383 102.884 30.846 103.28 30.396C103.676 29.94 104.153 29.586 104.711 29.334C105.275 29.076 105.899 28.947 106.583 28.947C107.249 28.947 107.855 29.076 108.401 29.334C108.947 29.586 109.415 29.94 109.805 30.396C110.201 30.846 110.507 31.383 110.723 32.007C110.939 32.625 111.047 33.297 111.047 34.023C111.047 34.755 110.942 35.433 110.732 36.057C110.528 36.681 110.231 37.224 109.841 37.686C109.457 38.142 108.989 38.502 108.437 38.766C107.885 39.024 107.267 39.153 106.583 39.153ZM109.337 34.266C109.337 33.78 109.286 33.303 109.184 32.835C109.082 32.367 108.92 31.95 108.698 31.584C108.476 31.212 108.188 30.912 107.834 30.684C107.48 30.456 107.051 30.342 106.547 30.342C106.067 30.342 105.65 30.441 105.296 30.639C104.942 30.837 104.651 31.101 104.423 31.431C104.195 31.761 104.024 32.136 103.91 32.556C103.802 32.976 103.748 33.408 103.748 33.852C103.748 34.338 103.802 34.815 103.91 35.283C104.024 35.751 104.195 36.168 104.423 36.534C104.657 36.9 104.954 37.197 105.314 37.425C105.68 37.647 106.115 37.758 106.619 37.758C107.093 37.758 107.501 37.659 107.843 37.461C108.191 37.263 108.473 37.002 108.689 36.678C108.911 36.348 109.073 35.976 109.175 35.562C109.283 35.142 109.337 34.71 109.337 34.266ZM122.43 28.92L119.091 39.18L117.237 39L114.024 29.1L115.671 28.92L117.822 35.571L118.299 37.659L118.749 35.571L120.855 29.1L122.43 28.92ZM133.462 37.839C133.276 38.031 133.072 38.208 132.85 38.37C132.628 38.532 132.382 38.673 132.112 38.793C131.842 38.907 131.542 38.994 131.212 39.054C130.888 39.12 130.525 39.153 130.123 39.153C129.325 39.153 128.635 39.012 128.053 38.73C127.471 38.448 126.991 38.07 126.613 37.596C126.235 37.122 125.956 36.579 125.776 35.967C125.596 35.355 125.506 34.716 125.506 34.05C125.506 33.624 125.548 33.204 125.632 32.79C125.722 32.37 125.848 31.971 126.01 31.593C126.178 31.215 126.385 30.864 126.631 30.54C126.883 30.216 127.171 29.937 127.495 29.703C127.825 29.469 128.188 29.286 128.584 29.154C128.986 29.016 129.424 28.947 129.898 28.947C130.546 28.947 131.131 29.052 131.653 29.262C132.175 29.472 132.619 29.766 132.985 30.144C133.351 30.522 133.633 30.978 133.831 31.512C134.029 32.04 134.128 32.622 134.128 33.258C134.128 33.444 134.122 33.648 134.11 33.87C134.098 34.092 134.08 34.302 134.056 34.5H127.216C127.216 34.962 127.288 35.391 127.432 35.787C127.576 36.177 127.771 36.516 128.017 36.804C128.269 37.086 128.563 37.308 128.899 37.47C129.241 37.632 129.61 37.713 130.006 37.713C130.39 37.713 130.717 37.686 130.987 37.632C131.263 37.572 131.494 37.5 131.68 37.416C131.872 37.332 132.031 37.242 132.157 37.146C132.283 37.05 132.391 36.96 132.481 36.876L133.462 37.839ZM132.544 33.15V32.754C132.544 32.412 132.475 32.097 132.337 31.809C132.205 31.521 132.022 31.272 131.788 31.062C131.56 30.846 131.293 30.678 130.987 30.558C130.687 30.438 130.369 30.378 130.033 30.378C129.631 30.378 129.277 30.444 128.971 30.576C128.671 30.702 128.413 30.867 128.197 31.071C127.981 31.269 127.807 31.488 127.675 31.728C127.543 31.968 127.447 32.196 127.387 32.412L126.856 33.438L128.521 33.15H132.544ZM152.709 35.616C152.709 36.012 152.73 36.345 152.772 36.615C152.82 36.879 152.886 37.095 152.97 37.263C153.06 37.425 153.168 37.542 153.294 37.614C153.426 37.68 153.576 37.713 153.744 37.713C154.026 37.713 154.305 37.68 154.581 37.614C154.857 37.548 155.115 37.473 155.355 37.389C155.595 37.299 155.808 37.212 155.994 37.128C156.18 37.038 156.324 36.972 156.426 36.93L157.047 38.019C156.993 38.067 156.861 38.154 156.651 38.28C156.447 38.4 156.186 38.526 155.868 38.658C155.556 38.79 155.202 38.904 154.806 39C154.41 39.102 153.996 39.153 153.564 39.153C153.024 39.153 152.589 39.054 152.259 38.856C151.935 38.658 151.686 38.388 151.512 38.046C151.338 37.704 151.224 37.308 151.17 36.858C151.116 36.402 151.089 35.916 151.089 35.4V30.54H148.47V29.1H151.089V27.219L152.664 26.22V29.1H157.02L156.84 30.54H152.709V35.616ZM165.118 39.153C164.452 39.153 163.84 39.024 163.282 38.766C162.73 38.502 162.253 38.142 161.851 37.686C161.449 37.224 161.134 36.681 160.906 36.057C160.684 35.433 160.573 34.755 160.573 34.023C160.573 33.297 160.681 32.625 160.897 32.007C161.113 31.383 161.419 30.846 161.815 30.396C162.211 29.94 162.688 29.586 163.246 29.334C163.81 29.076 164.434 28.947 165.118 28.947C165.784 28.947 166.39 29.076 166.936 29.334C167.482 29.586 167.95 29.94 168.34 30.396C168.736 30.846 169.042 31.383 169.258 32.007C169.474 32.625 169.582 33.297 169.582 34.023C169.582 34.755 169.477 35.433 169.267 36.057C169.063 36.681 168.766 37.224 168.376 37.686C167.992 38.142 167.524 38.502 166.972 38.766C166.42 39.024 165.802 39.153 165.118 39.153ZM167.872 34.266C167.872 33.78 167.821 33.303 167.719 32.835C167.617 32.367 167.455 31.95 167.233 31.584C167.011 31.212 166.723 30.912 166.369 30.684C166.015 30.456 165.586 30.342 165.082 30.342C164.602 30.342 164.185 30.441 163.831 30.639C163.477 30.837 163.186 31.101 162.958 31.431C162.73 31.761 162.559 32.136 162.445 32.556C162.337 32.976 162.283 33.408 162.283 33.852C162.283 34.338 162.337 34.815 162.445 35.283C162.559 35.751 162.73 36.168 162.958 36.534C163.192 36.9 163.489 37.197 163.849 37.425C164.215 37.647 164.65 37.758 165.154 37.758C165.628 37.758 166.036 37.659 166.378 37.461C166.726 37.263 167.008 37.002 167.224 36.678C167.446 36.348 167.608 35.976 167.71 35.562C167.818 35.142 167.872 34.71 167.872 34.266ZM186.21 39H184.59V26.4L184.41 24.6L186.21 24.42V30.45L187.011 29.415C187.245 29.283 187.581 29.172 188.019 29.082C188.457 28.992 189.021 28.947 189.711 28.947C190.617 28.947 191.307 29.247 191.781 29.847C192.261 30.441 192.501 31.302 192.501 32.43V39H190.791V32.619C190.791 32.217 190.755 31.875 190.683 31.593C190.617 31.311 190.521 31.08 190.395 30.9C190.269 30.72 190.113 30.591 189.927 30.513C189.741 30.429 189.531 30.387 189.297 30.387C188.937 30.387 188.592 30.423 188.262 30.495C187.938 30.567 187.641 30.66 187.371 30.774C187.101 30.882 186.864 31.002 186.66 31.134C186.462 31.266 186.312 31.389 186.21 31.503V39ZM203.704 37.839C203.518 38.031 203.314 38.208 203.092 38.37C202.87 38.532 202.624 38.673 202.354 38.793C202.084 38.907 201.784 38.994 201.454 39.054C201.13 39.12 200.767 39.153 200.365 39.153C199.567 39.153 198.877 39.012 198.295 38.73C197.713 38.448 197.233 38.07 196.855 37.596C196.477 37.122 196.198 36.579 196.018 35.967C195.838 35.355 195.748 34.716 195.748 34.05C195.748 33.624 195.79 33.204 195.874 32.79C195.964 32.37 196.09 31.971 196.252 31.593C196.42 31.215 196.627 30.864 196.873 30.54C197.125 30.216 197.413 29.937 197.737 29.703C198.067 29.469 198.43 29.286 198.826 29.154C199.228 29.016 199.666 28.947 200.14 28.947C200.788 28.947 201.373 29.052 201.895 29.262C202.417 29.472 202.861 29.766 203.227 30.144C203.593 30.522 203.875 30.978 204.073 31.512C204.271 32.04 204.37 32.622 204.37 33.258C204.37 33.444 204.364 33.648 204.352 33.87C204.34 34.092 204.322 34.302 204.298 34.5H197.458C197.458 34.962 197.53 35.391 197.674 35.787C197.818 36.177 198.013 36.516 198.259 36.804C198.511 37.086 198.805 37.308 199.141 37.47C199.483 37.632 199.852 37.713 200.248 37.713C200.632 37.713 200.959 37.686 201.229 37.632C201.505 37.572 201.736 37.5 201.922 37.416C202.114 37.332 202.273 37.242 202.399 37.146C202.525 37.05 202.633 36.96 202.723 36.876L203.704 37.839ZM202.786 33.15V32.754C202.786 32.412 202.717 32.097 202.579 31.809C202.447 31.521 202.264 31.272 202.03 31.062C201.802 30.846 201.535 30.678 201.229 30.558C200.929 30.438 200.611 30.378 200.275 30.378C199.873 30.378 199.519 30.444 199.213 30.576C198.913 30.702 198.655 30.867 198.439 31.071C198.223 31.269 198.049 31.488 197.917 31.728C197.785 31.968 197.689 32.196 197.629 32.412L197.098 33.438L198.763 33.15H202.786ZM216.095 39H214.295V37.542L213.449 38.55C213.347 38.628 213.215 38.703 213.053 38.775C212.897 38.847 212.729 38.913 212.549 38.973C212.369 39.027 212.186 39.069 212 39.099C211.814 39.135 211.637 39.153 211.469 39.153C211.019 39.153 210.566 39.084 210.11 38.946C209.654 38.802 209.243 38.595 208.877 38.325C208.511 38.049 208.211 37.71 207.977 37.308C207.749 36.9 207.635 36.432 207.635 35.904C207.635 35.346 207.752 34.866 207.986 34.464C208.226 34.056 208.538 33.72 208.922 33.456C209.306 33.192 209.744 32.997 210.236 32.871C210.728 32.745 211.226 32.682 211.73 32.682C212.3 32.682 212.795 32.715 213.215 32.781C213.635 32.841 213.995 32.928 214.295 33.042V32.655C214.295 32.301 214.25 31.983 214.16 31.701C214.076 31.419 213.941 31.182 213.755 30.99C213.569 30.792 213.329 30.642 213.035 30.54C212.747 30.438 212.402 30.387 212 30.387C211.622 30.387 211.295 30.411 211.019 30.459C210.749 30.501 210.497 30.549 210.263 30.603C210.125 30.633 209.993 30.666 209.867 30.702C209.741 30.738 209.618 30.774 209.498 30.81L208.85 29.604C209.102 29.49 209.402 29.382 209.75 29.28C210.038 29.196 210.365 29.121 210.731 29.055C211.103 28.983 211.556 28.947 212.09 28.947C212.78 28.947 213.368 29.04 213.854 29.226C214.34 29.412 214.736 29.673 215.042 30.009C215.348 30.345 215.57 30.75 215.708 31.224C215.846 31.692 215.915 32.214 215.915 32.79V37.38L216.095 39ZM214.295 34.275L213.755 34.203C213.671 34.197 213.56 34.188 213.422 34.176C213.284 34.164 213.134 34.155 212.972 34.149L212.495 34.131C212.339 34.125 212.204 34.122 212.09 34.122C211.754 34.122 211.424 34.152 211.1 34.212C210.776 34.272 210.485 34.371 210.227 34.509C209.975 34.647 209.768 34.83 209.606 35.058C209.45 35.28 209.372 35.559 209.372 35.895C209.372 36.165 209.432 36.411 209.552 36.633C209.672 36.855 209.831 37.047 210.029 37.209C210.233 37.371 210.464 37.497 210.722 37.587C210.986 37.671 211.259 37.713 211.541 37.713C212.099 37.713 212.6 37.608 213.044 37.398C213.488 37.182 213.905 36.894 214.295 36.534V34.275ZM221.332 30.945L222.151 29.523C222.319 29.397 222.511 29.295 222.727 29.217C222.943 29.139 223.165 29.082 223.393 29.046C223.621 29.004 223.849 28.977 224.077 28.965C224.311 28.953 224.533 28.947 224.743 28.947C225.193 28.947 225.577 28.968 225.895 29.01C226.213 29.046 226.48 29.094 226.696 29.154C226.918 29.214 227.095 29.277 227.227 29.343C227.359 29.403 227.461 29.457 227.533 29.505L227.982 32.07L226.633 32.25L226.183 30.648C226.135 30.63 226.06 30.612 225.958 30.594C225.856 30.576 225.739 30.558 225.607 30.54C225.475 30.522 225.334 30.507 225.184 30.495C225.04 30.483 224.902 30.477 224.77 30.477C224.362 30.477 223.984 30.525 223.636 30.621C223.288 30.711 222.97 30.837 222.682 30.999C222.394 31.161 222.136 31.35 221.908 31.566C221.686 31.782 221.494 32.01 221.332 32.25V39H219.712V29.1L221.332 28.92V30.945ZM242.559 29.1H244.827V27.705C244.827 27.195 244.929 26.739 245.133 26.337C245.337 25.935 245.613 25.596 245.961 25.32C246.309 25.038 246.717 24.822 247.185 24.672C247.653 24.522 248.151 24.447 248.679 24.447C248.949 24.447 249.222 24.471 249.498 24.519C249.774 24.567 250.038 24.63 250.29 24.708C250.548 24.78 250.785 24.864 251.001 24.96C251.217 25.056 251.394 25.149 251.532 25.239L250.767 26.301C250.695 26.259 250.584 26.214 250.434 26.166C250.29 26.118 250.131 26.073 249.957 26.031C249.789 25.989 249.615 25.956 249.435 25.932C249.255 25.902 249.099 25.887 248.967 25.887C248.709 25.887 248.433 25.923 248.139 25.995C247.851 26.061 247.584 26.172 247.338 26.328C247.098 26.478 246.897 26.676 246.735 26.922C246.573 27.162 246.492 27.453 246.492 27.795V29.1H250.524L250.344 30.54H246.537V39H244.827V30.54H242.559V29.1ZM256.453 30.945L257.272 29.523C257.44 29.397 257.632 29.295 257.848 29.217C258.064 29.139 258.286 29.082 258.514 29.046C258.742 29.004 258.97 28.977 259.198 28.965C259.432 28.953 259.654 28.947 259.864 28.947C260.314 28.947 260.698 28.968 261.016 29.01C261.334 29.046 261.601 29.094 261.817 29.154C262.039 29.214 262.216 29.277 262.348 29.343C262.48 29.403 262.582 29.457 262.654 29.505L263.104 32.07L261.754 32.25L261.304 30.648C261.256 30.63 261.181 30.612 261.079 30.594C260.977 30.576 260.86 30.558 260.728 30.54C260.596 30.522 260.455 30.507 260.305 30.495C260.161 30.483 260.023 30.477 259.891 30.477C259.483 30.477 259.105 30.525 258.757 30.621C258.409 30.711 258.091 30.837 257.803 30.999C257.515 31.161 257.257 31.35 257.029 31.566C256.807 31.782 256.615 32.01 256.453 32.25V39H254.833V29.1L256.453 28.92V30.945ZM270.482 39.153C269.816 39.153 269.204 39.024 268.646 38.766C268.094 38.502 267.617 38.142 267.215 37.686C266.813 37.224 266.498 36.681 266.27 36.057C266.048 35.433 265.937 34.755 265.937 34.023C265.937 33.297 266.045 32.625 266.261 32.007C266.477 31.383 266.783 30.846 267.179 30.396C267.575 29.94 268.052 29.586 268.61 29.334C269.174 29.076 269.798 28.947 270.482 28.947C271.148 28.947 271.754 29.076 272.3 29.334C272.846 29.586 273.314 29.94 273.704 30.396C274.1 30.846 274.406 31.383 274.622 32.007C274.838 32.625 274.946 33.297 274.946 34.023C274.946 34.755 274.841 35.433 274.631 36.057C274.427 36.681 274.13 37.224 273.74 37.686C273.356 38.142 272.888 38.502 272.336 38.766C271.784 39.024 271.166 39.153 270.482 39.153ZM273.236 34.266C273.236 33.78 273.185 33.303 273.083 32.835C272.981 32.367 272.819 31.95 272.597 31.584C272.375 31.212 272.087 30.912 271.733 30.684C271.379 30.456 270.95 30.342 270.446 30.342C269.966 30.342 269.549 30.441 269.195 30.639C268.841 30.837 268.55 31.101 268.322 31.431C268.094 31.761 267.923 32.136 267.809 32.556C267.701 32.976 267.647 33.408 267.647 33.852C267.647 34.338 267.701 34.815 267.809 35.283C267.923 35.751 268.094 36.168 268.322 36.534C268.556 36.9 268.853 37.197 269.213 37.425C269.579 37.647 270.014 37.758 270.518 37.758C270.992 37.758 271.4 37.659 271.742 37.461C272.09 37.263 272.372 37.002 272.588 36.678C272.81 36.348 272.972 35.976 273.074 35.562C273.182 35.142 273.236 34.71 273.236 34.266ZM278.724 39H277.122V29.1L278.724 28.92V30.567C278.85 30.327 278.946 30.141 279.012 30.009C279.084 29.871 279.135 29.772 279.165 29.712C279.201 29.646 279.222 29.607 279.228 29.595L279.246 29.568C279.3 29.514 279.375 29.451 279.471 29.379C279.573 29.307 279.696 29.241 279.84 29.181C279.984 29.115 280.149 29.061 280.335 29.019C280.521 28.971 280.731 28.947 280.965 28.947C281.301 28.947 281.577 28.992 281.793 29.082C282.009 29.166 282.186 29.286 282.324 29.442C282.462 29.592 282.57 29.775 282.648 29.991C282.726 30.207 282.798 30.441 282.864 30.693L283.431 29.613C283.491 29.559 283.587 29.493 283.719 29.415C283.857 29.337 284.013 29.265 284.187 29.199C284.367 29.127 284.556 29.067 284.754 29.019C284.952 28.971 285.147 28.947 285.339 28.947C285.795 28.947 286.155 29.025 286.419 29.181C286.689 29.331 286.89 29.55 287.022 29.838C287.16 30.126 287.247 30.474 287.283 30.882C287.325 31.29 287.346 31.746 287.346 32.25V39H285.744V32.34C285.744 32.016 285.738 31.734 285.726 31.494C285.72 31.248 285.684 31.044 285.618 30.882C285.558 30.714 285.459 30.591 285.321 30.513C285.189 30.429 285 30.387 284.754 30.387C284.634 30.387 284.487 30.426 284.313 30.504C284.139 30.576 283.965 30.672 283.791 30.792C283.623 30.906 283.464 31.038 283.314 31.188C283.17 31.332 283.068 31.479 283.008 31.629C283.008 31.665 283.008 31.725 283.008 31.809C283.014 31.887 283.017 31.971 283.017 32.061C283.023 32.145 283.026 32.226 283.026 32.304V39H281.415V32.52C281.415 32.196 281.409 31.902 281.397 31.638C281.385 31.374 281.346 31.152 281.28 30.972C281.22 30.786 281.118 30.642 280.974 30.54C280.836 30.438 280.638 30.387 280.38 30.387C280.284 30.387 280.161 30.414 280.011 30.468C279.861 30.522 279.705 30.603 279.543 30.711C279.387 30.813 279.234 30.939 279.084 31.089C278.94 31.233 278.82 31.398 278.724 31.584V39ZM306.17 35.724L308.591 29.1L310.211 28.92L306.575 39.153C306.395 39.657 306.2 40.158 305.99 40.656C305.786 41.154 305.552 41.601 305.288 41.997C305.03 42.393 304.736 42.711 304.406 42.951C304.082 43.197 303.71 43.32 303.29 43.32C302.954 43.32 302.645 43.254 302.363 43.122C302.081 42.99 301.814 42.816 301.562 42.6L302.219 41.547C302.255 41.583 302.3 41.625 302.354 41.673C302.414 41.721 302.477 41.766 302.543 41.808C302.615 41.856 302.69 41.895 302.768 41.925C302.852 41.955 302.936 41.97 303.02 41.97C303.236 41.97 303.431 41.892 303.605 41.736C303.785 41.586 303.95 41.388 304.1 41.142C304.256 40.896 304.397 40.623 304.523 40.323C304.655 40.023 304.781 39.723 304.901 39.423L301.238 29.1L302.948 28.92L305.324 35.724L305.792 37.812L306.17 35.724ZM317.31 39.153C316.644 39.153 316.032 39.024 315.474 38.766C314.922 38.502 314.445 38.142 314.043 37.686C313.641 37.224 313.326 36.681 313.098 36.057C312.876 35.433 312.765 34.755 312.765 34.023C312.765 33.297 312.873 32.625 313.089 32.007C313.305 31.383 313.611 30.846 314.007 30.396C314.403 29.94 314.88 29.586 315.438 29.334C316.002 29.076 316.626 28.947 317.31 28.947C317.976 28.947 318.582 29.076 319.128 29.334C319.674 29.586 320.142 29.94 320.532 30.396C320.928 30.846 321.234 31.383 321.45 32.007C321.666 32.625 321.774 33.297 321.774 34.023C321.774 34.755 321.669 35.433 321.459 36.057C321.255 36.681 320.958 37.224 320.568 37.686C320.184 38.142 319.716 38.502 319.164 38.766C318.612 39.024 317.994 39.153 317.31 39.153ZM320.064 34.266C320.064 33.78 320.013 33.303 319.911 32.835C319.809 32.367 319.647 31.95 319.425 31.584C319.203 31.212 318.915 30.912 318.561 30.684C318.207 30.456 317.778 30.342 317.274 30.342C316.794 30.342 316.377 30.441 316.023 30.639C315.669 30.837 315.378 31.101 315.15 31.431C314.922 31.761 314.751 32.136 314.637 32.556C314.529 32.976 314.475 33.408 314.475 33.852C314.475 34.338 314.529 34.815 314.637 35.283C314.751 35.751 314.922 36.168 315.15 36.534C315.384 36.9 315.681 37.197 316.041 37.425C316.407 37.647 316.842 37.758 317.346 37.758C317.82 37.758 318.228 37.659 318.57 37.461C318.918 37.263 319.2 37.002 319.416 36.678C319.638 36.348 319.8 35.976 319.902 35.562C320.01 35.142 320.064 34.71 320.064 34.266ZM331.555 29.1L333.175 28.92V39H331.555V37.38L331.006 38.343C330.952 38.409 330.865 38.487 330.745 38.577C330.625 38.667 330.475 38.757 330.295 38.847C330.115 38.931 329.908 39.003 329.674 39.063C329.44 39.123 329.179 39.153 328.891 39.153C328.165 39.153 327.556 39.042 327.064 38.82C326.578 38.592 326.188 38.292 325.894 37.92C325.6 37.548 325.39 37.119 325.264 36.633C325.138 36.147 325.075 35.646 325.075 35.13V29.1L326.695 28.92V35.13C326.695 35.52 326.734 35.871 326.812 36.183C326.89 36.495 327.022 36.762 327.208 36.984C327.4 37.206 327.652 37.377 327.964 37.497C328.282 37.611 328.675 37.668 329.143 37.668C329.491 37.668 329.8 37.62 330.07 37.524C330.34 37.422 330.574 37.302 330.772 37.164C330.976 37.02 331.141 36.87 331.267 36.714C331.399 36.558 331.495 36.42 331.555 36.3V29.1Z" fill="#1D2027"></path><path d="M373.875 42.25H361.625C361.133 42.25 360.75 41.8672 360.75 41.375C360.75 40.9375 361.133 40.5 361.625 40.5H371.742L357.469 26.2812C357.141 25.9531 357.141 25.3516 357.469 25.0234C357.797 24.6953 358.398 24.6953 358.727 25.0234L373 39.2969V29.125C373 28.6875 373.383 28.25 373.875 28.25C374.312 28.25 374.75 28.6875 374.75 29.125V41.375C374.75 41.8672 374.312 42.25 373.875 42.25Z" fill="#1D2027"></path><defs><linearGradient id="paint0_linear_4251_84411" x1="-14.6627" y1="4.01213" x2="96.8575" y2="233.055" gradientUnits="userSpaceOnUse"><stop stop-color="#EBFFB4"></stop><stop offset="1" stop-color="#ADFFDF"></stop></linearGradient></defs></svg>