<?xml version="1.0" encoding="UTF-8"?>
<svg xmlns="http://www.w3.org/2000/svg" width="1650" height="312" viewBox="0 0 1650 312" fill="none">
  <mask id="path-1-outside-1_5257_24729" maskUnits="userSpaceOnUse" x="22" y="0" width="1606" height="312" fill="black">
    <rect fill="white" x="22" width="1606" height="312"></rect>
    <path d="M276.562 311H248.438H220.312H192.188H164.062H135.938H107.812H79.6875H51.5625V282.875H23.4375V254.75V226.625V198.5V170.375V142.25V114.125V86H51.5625H79.6875V114.125V142.25V170.375V198.5V226.625V254.75H107.812H135.938V226.625V198.5V170.375V142.25V114.125V86H164.062H192.188V114.125V142.25V170.375V198.5V226.625V254.75H220.312H248.438V226.625V198.5V170.375V142.25V114.125V86H276.562H304.688V114.125V142.25V170.375V198.5V226.625V254.75V282.875V311H276.562ZM473.438 311H445.312H417.188H389.062V282.875H360.938V254.75V226.625V198.5V170.375V142.25V114.125H389.062V86H417.188H445.312H473.438H501.562V114.125H529.688V142.25V170.375V198.5H501.562H473.438H445.312H417.188V226.625V254.75H445.312H473.438V226.625H501.562H529.688V254.75V282.875H501.562V311H473.438ZM445.312 170.375H473.438V142.25H445.312H417.188V170.375H445.312ZM726.562 311H698.438H670.312V282.875H642.188V311H614.062H585.938V282.875V254.75V226.625V198.5V170.375V142.25V114.125V86V57.875V29.75V1.625H614.062H642.188V29.75V57.875V86V114.125H670.312V86H698.438H726.562H754.688V114.125H782.812V142.25V170.375V198.5V226.625V254.75V282.875H754.688V311H726.562ZM698.438 254.75H726.562V226.625V198.5V170.375V142.25H698.438H670.312V170.375H642.188V198.5V226.625H670.312V254.75H698.438ZM1148.44 311H1120.31V282.875H1092.19V311H1064.06H1035.94H1007.81V282.875H979.688V254.75V226.625V198.5V170.375V142.25V114.125H1007.81V86H1035.94H1064.06H1092.19V114.125H1120.31V86V57.875V29.75V1.625H1148.44H1176.56V29.75V57.875V86V114.125V142.25V170.375V198.5V226.625V254.75V282.875V311H1148.44ZM1064.06 254.75H1092.19V226.625H1120.31V198.5V170.375H1092.19V142.25H1064.06H1035.94V170.375V198.5V226.625V254.75H1064.06ZM1345.31 311H1317.19H1289.06H1260.94V282.875H1232.81V254.75V226.625V198.5V170.375V142.25V114.125H1260.94V86H1289.06H1317.19H1345.31H1373.44V114.125H1401.56V142.25V170.375V198.5H1373.44H1345.31H1317.19H1289.06V226.625V254.75H1317.19H1345.31V226.625H1373.44H1401.56V254.75V282.875H1373.44V311H1345.31ZM1317.19 170.375H1345.31V142.25H1317.19H1289.06V170.375H1317.19ZM1542.19 311H1514.06V282.875H1485.94V254.75H1457.81V226.625V198.5V170.375V142.25V114.125V86H1485.94H1514.06V114.125V142.25V170.375V198.5V226.625H1542.19H1570.31V198.5V170.375V142.25V114.125V86H1598.44H1626.56V114.125V142.25V170.375V198.5V226.625V254.75H1598.44V282.875H1570.31V311H1542.19Z"></path>
  </mask>
  <path d="M51.5625 311H50.5625V312H51.5625V311ZM51.5625 282.875H52.5625V281.875H51.5625V282.875ZM23.4375 282.875H22.4375V283.875H23.4375V282.875ZM23.4375 86V85H22.4375V86H23.4375ZM79.6875 86H80.6875V85H79.6875V86ZM79.6875 254.75H78.6875V255.75H79.6875V254.75ZM135.938 254.75V255.75H136.938V254.75H135.938ZM135.938 86V85H134.938V86H135.938ZM192.188 86H193.188V85H192.188V86ZM192.188 254.75H191.188V255.75H192.188V254.75ZM248.438 254.75V255.75H249.438V254.75H248.438ZM248.438 86V85H247.438V86H248.438ZM304.688 86H305.688V85H304.688V86ZM304.688 311V312H305.688V311H304.688ZM276.562 310H248.438V312H276.562V310ZM248.438 310H220.312V312H248.438V310ZM220.312 310H192.188V312H220.312V310ZM192.188 310H164.062V312H192.188V310ZM164.062 310H135.938V312H164.062V310ZM135.938 310H107.812V312H135.938V310ZM107.812 310H79.6875V312H107.812V310ZM79.6875 310H51.5625V312H79.6875V310ZM52.5625 311V282.875H50.5625V311H52.5625ZM51.5625 281.875H23.4375V283.875H51.5625V281.875ZM24.4375 282.875V254.75H22.4375V282.875H24.4375ZM24.4375 254.75V226.625H22.4375V254.75H24.4375ZM24.4375 226.625V198.5H22.4375V226.625H24.4375ZM24.4375 198.5V170.375H22.4375V198.5H24.4375ZM24.4375 170.375V142.25H22.4375V170.375H24.4375ZM24.4375 142.25V114.125H22.4375V142.25H24.4375ZM24.4375 114.125V86H22.4375V114.125H24.4375ZM23.4375 87H51.5625V85H23.4375V87ZM51.5625 87H79.6875V85H51.5625V87ZM78.6875 86V114.125H80.6875V86H78.6875ZM78.6875 114.125V142.25H80.6875V114.125H78.6875ZM78.6875 142.25V170.375H80.6875V142.25H78.6875ZM78.6875 170.375V198.5H80.6875V170.375H78.6875ZM78.6875 198.5V226.625H80.6875V198.5H78.6875ZM78.6875 226.625V254.75H80.6875V226.625H78.6875ZM79.6875 255.75H107.812V253.75H79.6875V255.75ZM107.812 255.75H135.938V253.75H107.812V255.75ZM136.938 254.75V226.625H134.938V254.75H136.938ZM136.938 226.625V198.5H134.938V226.625H136.938ZM136.938 198.5V170.375H134.938V198.5H136.938ZM136.938 170.375V142.25H134.938V170.375H136.938ZM136.938 142.25V114.125H134.938V142.25H136.938ZM136.938 114.125V86H134.938V114.125H136.938ZM135.938 87H164.062V85H135.938V87ZM164.062 87H192.188V85H164.062V87ZM191.188 86V114.125H193.188V86H191.188ZM191.188 114.125V142.25H193.188V114.125H191.188ZM191.188 142.25V170.375H193.188V142.25H191.188ZM191.188 170.375V198.5H193.188V170.375H191.188ZM191.188 198.5V226.625H193.188V198.5H191.188ZM191.188 226.625V254.75H193.188V226.625H191.188ZM192.188 255.75H220.312V253.75H192.188V255.75ZM220.312 255.75H248.438V253.75H220.312V255.75ZM249.438 254.75V226.625H247.438V254.75H249.438ZM249.438 226.625V198.5H247.438V226.625H249.438ZM249.438 198.5V170.375H247.438V198.5H249.438ZM249.438 170.375V142.25H247.438V170.375H249.438ZM249.438 142.25V114.125H247.438V142.25H249.438ZM249.438 114.125V86H247.438V114.125H249.438ZM248.438 87H276.562V85H248.438V87ZM276.562 87H304.688V85H276.562V87ZM303.688 86V114.125H305.688V86H303.688ZM303.688 114.125V142.25H305.688V114.125H303.688ZM303.688 142.25V170.375H305.688V142.25H303.688ZM303.688 170.375V198.5H305.688V170.375H303.688ZM303.688 198.5V226.625H305.688V198.5H303.688ZM303.688 226.625V254.75H305.688V226.625H303.688ZM303.688 254.75V282.875H305.688V254.75H303.688ZM303.688 282.875V311H305.688V282.875H303.688ZM304.688 310H276.562V312H304.688V310ZM389.062 311H388.062V312H389.062V311ZM389.062 282.875H390.062V281.875H389.062V282.875ZM360.938 282.875H359.938V283.875H360.938V282.875ZM360.938 114.125V113.125H359.938V114.125H360.938ZM389.062 114.125V115.125H390.062V114.125H389.062ZM389.062 86V85H388.062V86H389.062ZM501.562 86H502.562V85H501.562V86ZM501.562 114.125H500.562V115.125H501.562V114.125ZM529.688 114.125H530.688V113.125H529.688V114.125ZM529.688 198.5V199.5H530.688V198.5H529.688ZM417.188 198.5V197.5H416.188V198.5H417.188ZM417.188 254.75H416.188V255.75H417.188V254.75ZM473.438 254.75V255.75H474.438V254.75H473.438ZM473.438 226.625V225.625H472.438V226.625H473.438ZM529.688 226.625H530.688V225.625H529.688V226.625ZM529.688 282.875V283.875H530.688V282.875H529.688ZM501.562 282.875V281.875H500.562V282.875H501.562ZM501.562 311V312H502.562V311H501.562ZM473.438 170.375V171.375H474.438V170.375H473.438ZM473.438 142.25H474.438V141.25H473.438V142.25ZM417.188 142.25V141.25H416.188V142.25H417.188ZM417.188 170.375H416.188V171.375H417.188V170.375ZM473.438 310H445.312V312H473.438V310ZM445.312 310H417.188V312H445.312V310ZM417.188 310H389.062V312H417.188V310ZM390.062 311V282.875H388.062V311H390.062ZM389.062 281.875H360.938V283.875H389.062V281.875ZM361.938 282.875V254.75H359.938V282.875H361.938ZM361.938 254.75V226.625H359.938V254.75H361.938ZM361.938 226.625V198.5H359.938V226.625H361.938ZM361.938 198.5V170.375H359.938V198.5H361.938ZM361.938 170.375V142.25H359.938V170.375H361.938ZM361.938 142.25V114.125H359.938V142.25H361.938ZM360.938 115.125H389.062V113.125H360.938V115.125ZM390.062 114.125V86H388.062V114.125H390.062ZM389.062 87H417.188V85H389.062V87ZM417.188 87H445.312V85H417.188V87ZM445.312 87H473.438V85H445.312V87ZM473.438 87H501.562V85H473.438V87ZM500.562 86V114.125H502.562V86H500.562ZM501.562 115.125H529.688V113.125H501.562V115.125ZM528.688 114.125V142.25H530.688V114.125H528.688ZM528.688 142.25V170.375H530.688V142.25H528.688ZM528.688 170.375V198.5H530.688V170.375H528.688ZM529.688 197.5H501.562V199.5H529.688V197.5ZM501.562 197.5H473.438V199.5H501.562V197.5ZM473.438 197.5H445.312V199.5H473.438V197.5ZM445.312 197.5H417.188V199.5H445.312V197.5ZM416.188 198.5V226.625H418.188V198.5H416.188ZM416.188 226.625V254.75H418.188V226.625H416.188ZM417.188 255.75H445.312V253.75H417.188V255.75ZM445.312 255.75H473.438V253.75H445.312V255.75ZM474.438 254.75V226.625H472.438V254.75H474.438ZM473.438 227.625H501.562V225.625H473.438V227.625ZM501.562 227.625H529.688V225.625H501.562V227.625ZM528.688 226.625V254.75H530.688V226.625H528.688ZM528.688 254.75V282.875H530.688V254.75H528.688ZM529.688 281.875H501.562V283.875H529.688V281.875ZM500.562 282.875V311H502.562V282.875H500.562ZM501.562 310H473.438V312H501.562V310ZM445.312 171.375H473.438V169.375H445.312V171.375ZM474.438 170.375V142.25H472.438V170.375H474.438ZM473.438 141.25H445.312V143.25H473.438V141.25ZM445.312 141.25H417.188V143.25H445.312V141.25ZM416.188 142.25V170.375H418.188V142.25H416.188ZM417.188 171.375H445.312V169.375H417.188V171.375ZM670.312 311H669.312V312H670.312V311ZM670.312 282.875H671.312V281.875H670.312V282.875ZM642.188 282.875V281.875H641.188V282.875H642.188ZM642.188 311V312H643.188V311H642.188ZM585.938 311H584.938V312H585.938V311ZM585.938 1.625V0.625H584.938V1.625H585.938ZM642.188 1.625H643.188V0.625H642.188V1.625ZM642.188 114.125H641.188V115.125H642.188V114.125ZM670.312 114.125V115.125H671.312V114.125H670.312ZM670.312 86V85H669.312V86H670.312ZM754.688 86H755.688V85H754.688V86ZM754.688 114.125H753.688V115.125H754.688V114.125ZM782.812 114.125H783.812V113.125H782.812V114.125ZM782.812 282.875V283.875H783.812V282.875H782.812ZM754.688 282.875V281.875H753.688V282.875H754.688ZM754.688 311V312H755.688V311H754.688ZM726.562 254.75V255.75H727.562V254.75H726.562ZM726.562 142.25H727.562V141.25H726.562V142.25ZM670.312 142.25V141.25H669.312V142.25H670.312ZM670.312 170.375V171.375H671.312V170.375H670.312ZM642.188 170.375V169.375H641.188V170.375H642.188ZM642.188 226.625H641.188V227.625H642.188V226.625ZM670.312 226.625H671.312V225.625H670.312V226.625ZM670.312 254.75H669.312V255.75H670.312V254.75ZM726.562 310H698.438V312H726.562V310ZM698.438 310H670.312V312H698.438V310ZM671.312 311V282.875H669.312V311H671.312ZM670.312 281.875H642.188V283.875H670.312V281.875ZM641.188 282.875V311H643.188V282.875H641.188ZM642.188 310H614.062V312H642.188V310ZM614.062 310H585.938V312H614.062V310ZM586.938 311V282.875H584.938V311H586.938ZM586.938 282.875V254.75H584.938V282.875H586.938ZM586.938 254.75V226.625H584.938V254.75H586.938ZM586.938 226.625V198.5H584.938V226.625H586.938ZM586.938 198.5V170.375H584.938V198.5H586.938ZM586.938 170.375V142.25H584.938V170.375H586.938ZM586.938 142.25V114.125H584.938V142.25H586.938ZM586.938 114.125V86H584.938V114.125H586.938ZM586.938 86V57.875H584.938V86H586.938ZM586.938 57.875V29.75H584.938V57.875H586.938ZM586.938 29.75V1.625H584.938V29.75H586.938ZM585.938 2.625H614.062V0.625H585.938V2.625ZM614.062 2.625H642.188V0.625H614.062V2.625ZM641.188 1.625V29.75H643.188V1.625H641.188ZM641.188 29.75V57.875H643.188V29.75H641.188ZM641.188 57.875V86H643.188V57.875H641.188ZM641.188 86V114.125H643.188V86H641.188ZM642.188 115.125H670.312V113.125H642.188V115.125ZM671.312 114.125V86H669.312V114.125H671.312ZM670.312 87H698.438V85H670.312V87ZM698.438 87H726.562V85H698.438V87ZM726.562 87H754.688V85H726.562V87ZM753.688 86V114.125H755.688V86H753.688ZM754.688 115.125H782.812V113.125H754.688V115.125ZM781.812 114.125V142.25H783.812V114.125H781.812ZM781.812 142.25V170.375H783.812V142.25H781.812ZM781.812 170.375V198.5H783.812V170.375H781.812ZM781.812 198.5V226.625H783.812V198.5H781.812ZM781.812 226.625V254.75H783.812V226.625H781.812ZM781.812 254.75V282.875H783.812V254.75H781.812ZM782.812 281.875H754.688V283.875H782.812V281.875ZM753.688 282.875V311H755.688V282.875H753.688ZM754.688 310H726.562V312H754.688V310ZM698.438 255.75H726.562V253.75H698.438V255.75ZM727.562 254.75V226.625H725.562V254.75H727.562ZM727.562 226.625V198.5H725.562V226.625H727.562ZM727.562 198.5V170.375H725.562V198.5H727.562ZM727.562 170.375V142.25H725.562V170.375H727.562ZM726.562 141.25H698.438V143.25H726.562V141.25ZM698.438 141.25H670.312V143.25H698.438V141.25ZM669.312 142.25V170.375H671.312V142.25H669.312ZM670.312 169.375H642.188V171.375H670.312V169.375ZM641.188 170.375V198.5H643.188V170.375H641.188ZM641.188 198.5V226.625H643.188V198.5H641.188ZM642.188 227.625H670.312V225.625H642.188V227.625ZM669.312 226.625V254.75H671.312V226.625H669.312ZM670.312 255.75H698.438V253.75H670.312V255.75ZM1120.31 311H1119.31V312H1120.31V311ZM1120.31 282.875H1121.31V281.875H1120.31V282.875ZM1092.19 282.875V281.875H1091.19V282.875H1092.19ZM1092.19 311V312H1093.19V311H1092.19ZM1007.81 311H1006.81V312H1007.81V311ZM1007.81 282.875H1008.81V281.875H1007.81V282.875ZM979.688 282.875H978.688V283.875H979.688V282.875ZM979.688 114.125V113.125H978.688V114.125H979.688ZM1007.81 114.125V115.125H1008.81V114.125H1007.81ZM1007.81 86V85H1006.81V86H1007.81ZM1092.19 86H1093.19V85H1092.19V86ZM1092.19 114.125H1091.19V115.125H1092.19V114.125ZM1120.31 114.125V115.125H1121.31V114.125H1120.31ZM1120.31 1.625V0.625H1119.31V1.625H1120.31ZM1176.56 1.625H1177.56V0.625H1176.56V1.625ZM1176.56 311V312H1177.56V311H1176.56ZM1092.19 254.75V255.75H1093.19V254.75H1092.19ZM1092.19 226.625V225.625H1091.19V226.625H1092.19ZM1120.31 226.625V227.625H1121.31V226.625H1120.31ZM1120.31 170.375H1121.31V169.375H1120.31V170.375ZM1092.19 170.375H1091.19V171.375H1092.19V170.375ZM1092.19 142.25H1093.19V141.25H1092.19V142.25ZM1035.94 142.25V141.25H1034.94V142.25H1035.94ZM1035.94 254.75H1034.94V255.75H1035.94V254.75ZM1148.44 310H1120.31V312H1148.44V310ZM1121.31 311V282.875H1119.31V311H1121.31ZM1120.31 281.875H1092.19V283.875H1120.31V281.875ZM1091.19 282.875V311H1093.19V282.875H1091.19ZM1092.19 310H1064.06V312H1092.19V310ZM1064.06 310H1035.94V312H1064.06V310ZM1035.94 310H1007.81V312H1035.94V310ZM1008.81 311V282.875H1006.81V311H1008.81ZM1007.81 281.875H979.688V283.875H1007.81V281.875ZM980.688 282.875V254.75H978.688V282.875H980.688ZM980.688 254.75V226.625H978.688V254.75H980.688ZM980.688 226.625V198.5H978.688V226.625H980.688ZM980.688 198.5V170.375H978.688V198.5H980.688ZM980.688 170.375V142.25H978.688V170.375H980.688ZM980.688 142.25V114.125H978.688V142.25H980.688ZM979.688 115.125H1007.81V113.125H979.688V115.125ZM1008.81 114.125V86H1006.81V114.125H1008.81ZM1007.81 87H1035.94V85H1007.81V87ZM1035.94 87H1064.06V85H1035.94V87ZM1064.06 87H1092.19V85H1064.06V87ZM1091.19 86V114.125H1093.19V86H1091.19ZM1092.19 115.125H1120.31V113.125H1092.19V115.125ZM1121.31 114.125V86H1119.31V114.125H1121.31ZM1121.31 86V57.875H1119.31V86H1121.31ZM1121.31 57.875V29.75H1119.31V57.875H1121.31ZM1121.31 29.75V1.625H1119.31V29.75H1121.31ZM1120.31 2.625H1148.44V0.625H1120.31V2.625ZM1148.44 2.625H1176.56V0.625H1148.44V2.625ZM1175.56 1.625V29.75H1177.56V1.625H1175.56ZM1175.56 29.75V57.875H1177.56V29.75H1175.56ZM1175.56 57.875V86H1177.56V57.875H1175.56ZM1175.56 86V114.125H1177.56V86H1175.56ZM1175.56 114.125V142.25H1177.56V114.125H1175.56ZM1175.56 142.25V170.375H1177.56V142.25H1175.56ZM1175.56 170.375V198.5H1177.56V170.375H1175.56ZM1175.56 198.5V226.625H1177.56V198.5H1175.56ZM1175.56 226.625V254.75H1177.56V226.625H1175.56ZM1175.56 254.75V282.875H1177.56V254.75H1175.56ZM1175.56 282.875V311H1177.56V282.875H1175.56ZM1176.56 310H1148.44V312H1176.56V310ZM1064.06 255.75H1092.19V253.75H1064.06V255.75ZM1093.19 254.75V226.625H1091.19V254.75H1093.19ZM1092.19 227.625H1120.31V225.625H1092.19V227.625ZM1121.31 226.625V198.5H1119.31V226.625H1121.31ZM1121.31 198.5V170.375H1119.31V198.5H1121.31ZM1120.31 169.375H1092.19V171.375H1120.31V169.375ZM1093.19 170.375V142.25H1091.19V170.375H1093.19ZM1092.19 141.25H1064.06V143.25H1092.19V141.25ZM1064.06 141.25H1035.94V143.25H1064.06V141.25ZM1034.94 142.25V170.375H1036.94V142.25H1034.94ZM1034.94 170.375V198.5H1036.94V170.375H1034.94ZM1034.94 198.5V226.625H1036.94V198.5H1034.94ZM1034.94 226.625V254.75H1036.94V226.625H1034.94ZM1035.94 255.75H1064.06V253.75H1035.94V255.75ZM1260.94 311H1259.94V312H1260.94V311ZM1260.94 282.875H1261.94V281.875H1260.94V282.875ZM1232.81 282.875H1231.81V283.875H1232.81V282.875ZM1232.81 114.125V113.125H1231.81V114.125H1232.81ZM1260.94 114.125V115.125H1261.94V114.125H1260.94ZM1260.94 86V85H1259.94V86H1260.94ZM1373.44 86H1374.44V85H1373.44V86ZM1373.44 114.125H1372.44V115.125H1373.44V114.125ZM1401.56 114.125H1402.56V113.125H1401.56V114.125ZM1401.56 198.5V199.5H1402.56V198.5H1401.56ZM1289.06 198.5V197.5H1288.06V198.5H1289.06ZM1289.06 254.75H1288.06V255.75H1289.06V254.75ZM1345.31 254.75V255.75H1346.31V254.75H1345.31ZM1345.31 226.625V225.625H1344.31V226.625H1345.31ZM1401.56 226.625H1402.56V225.625H1401.56V226.625ZM1401.56 282.875V283.875H1402.56V282.875H1401.56ZM1373.44 282.875V281.875H1372.44V282.875H1373.44ZM1373.44 311V312H1374.44V311H1373.44ZM1345.31 170.375V171.375H1346.31V170.375H1345.31ZM1345.31 142.25H1346.31V141.25H1345.31V142.25ZM1289.06 142.25V141.25H1288.06V142.25H1289.06ZM1289.06 170.375H1288.06V171.375H1289.06V170.375ZM1345.31 310H1317.19V312H1345.31V310ZM1317.19 310H1289.06V312H1317.19V310ZM1289.06 310H1260.94V312H1289.06V310ZM1261.94 311V282.875H1259.94V311H1261.94ZM1260.94 281.875H1232.81V283.875H1260.94V281.875ZM1233.81 282.875V254.75H1231.81V282.875H1233.81ZM1233.81 254.75V226.625H1231.81V254.75H1233.81ZM1233.81 226.625V198.5H1231.81V226.625H1233.81ZM1233.81 198.5V170.375H1231.81V198.5H1233.81ZM1233.81 170.375V142.25H1231.81V170.375H1233.81ZM1233.81 142.25V114.125H1231.81V142.25H1233.81ZM1232.81 115.125H1260.94V113.125H1232.81V115.125ZM1261.94 114.125V86H1259.94V114.125H1261.94ZM1260.94 87H1289.06V85H1260.94V87ZM1289.06 87H1317.19V85H1289.06V87ZM1317.19 87H1345.31V85H1317.19V87ZM1345.31 87H1373.44V85H1345.31V87ZM1372.44 86V114.125H1374.44V86H1372.44ZM1373.44 115.125H1401.56V113.125H1373.44V115.125ZM1400.56 114.125V142.25H1402.56V114.125H1400.56ZM1400.56 142.25V170.375H1402.56V142.25H1400.56ZM1400.56 170.375V198.5H1402.56V170.375H1400.56ZM1401.56 197.5H1373.44V199.5H1401.56V197.5ZM1373.44 197.5H1345.31V199.5H1373.44V197.5ZM1345.31 197.5H1317.19V199.5H1345.31V197.5ZM1317.19 197.5H1289.06V199.5H1317.19V197.5ZM1288.06 198.5V226.625H1290.06V198.5H1288.06ZM1288.06 226.625V254.75H1290.06V226.625H1288.06ZM1289.06 255.75H1317.19V253.75H1289.06V255.75ZM1317.19 255.75H1345.31V253.75H1317.19V255.75ZM1346.31 254.75V226.625H1344.31V254.75H1346.31ZM1345.31 227.625H1373.44V225.625H1345.31V227.625ZM1373.44 227.625H1401.56V225.625H1373.44V227.625ZM1400.56 226.625V254.75H1402.56V226.625H1400.56ZM1400.56 254.75V282.875H1402.56V254.75H1400.56ZM1401.56 281.875H1373.44V283.875H1401.56V281.875ZM1372.44 282.875V311H1374.44V282.875H1372.44ZM1373.44 310H1345.31V312H1373.44V310ZM1317.19 171.375H1345.31V169.375H1317.19V171.375ZM1346.31 170.375V142.25H1344.31V170.375H1346.31ZM1345.31 141.25H1317.19V143.25H1345.31V141.25ZM1317.19 141.25H1289.06V143.25H1317.19V141.25ZM1288.06 142.25V170.375H1290.06V142.25H1288.06ZM1289.06 171.375H1317.19V169.375H1289.06V171.375ZM1514.06 311H1513.06V312H1514.06V311ZM1514.06 282.875H1515.06V281.875H1514.06V282.875ZM1485.94 282.875H1484.94V283.875H1485.94V282.875ZM1485.94 254.75H1486.94V253.75H1485.94V254.75ZM1457.81 254.75H1456.81V255.75H1457.81V254.75ZM1457.81 86V85H1456.81V86H1457.81ZM1514.06 86H1515.06V85H1514.06V86ZM1514.06 226.625H1513.06V227.625H1514.06V226.625ZM1570.31 226.625V227.625H1571.31V226.625H1570.31ZM1570.31 86V85H1569.31V86H1570.31ZM1626.56 86H1627.56V85H1626.56V86ZM1626.56 254.75V255.75H1627.56V254.75H1626.56ZM1598.44 254.75V253.75H1597.44V254.75H1598.44ZM1598.44 282.875V283.875H1599.44V282.875H1598.44ZM1570.31 282.875V281.875H1569.31V282.875H1570.31ZM1570.31 311V312H1571.31V311H1570.31ZM1542.19 310H1514.06V312H1542.19V310ZM1515.06 311V282.875H1513.06V311H1515.06ZM1514.06 281.875H1485.94V283.875H1514.06V281.875ZM1486.94 282.875V254.75H1484.94V282.875H1486.94ZM1485.94 253.75H1457.81V255.75H1485.94V253.75ZM1458.81 254.75V226.625H1456.81V254.75H1458.81ZM1458.81 226.625V198.5H1456.81V226.625H1458.81ZM1458.81 198.5V170.375H1456.81V198.5H1458.81ZM1458.81 170.375V142.25H1456.81V170.375H1458.81ZM1458.81 142.25V114.125H1456.81V142.25H1458.81ZM1458.81 114.125V86H1456.81V114.125H1458.81ZM1457.81 87H1485.94V85H1457.81V87ZM1485.94 87H1514.06V85H1485.94V87ZM1513.06 86V114.125H1515.06V86H1513.06ZM1513.06 114.125V142.25H1515.06V114.125H1513.06ZM1513.06 142.25V170.375H1515.06V142.25H1513.06ZM1513.06 170.375V198.5H1515.06V170.375H1513.06ZM1513.06 198.5V226.625H1515.06V198.5H1513.06ZM1514.06 227.625H1542.19V225.625H1514.06V227.625ZM1542.19 227.625H1570.31V225.625H1542.19V227.625ZM1571.31 226.625V198.5H1569.31V226.625H1571.31ZM1571.31 198.5V170.375H1569.31V198.5H1571.31ZM1571.31 170.375V142.25H1569.31V170.375H1571.31ZM1571.31 142.25V114.125H1569.31V142.25H1571.31ZM1571.31 114.125V86H1569.31V114.125H1571.31ZM1570.31 87H1598.44V85H1570.31V87ZM1598.44 87H1626.56V85H1598.44V87ZM1625.56 86V114.125H1627.56V86H1625.56ZM1625.56 114.125V142.25H1627.56V114.125H1625.56ZM1625.56 142.25V170.375H1627.56V142.25H1625.56ZM1625.56 170.375V198.5H1627.56V170.375H1625.56ZM1625.56 198.5V226.625H1627.56V198.5H1625.56ZM1625.56 226.625V254.75H1627.56V226.625H1625.56ZM1626.56 253.75H1598.44V255.75H1626.56V253.75ZM1597.44 254.75V282.875H1599.44V254.75H1597.44ZM1598.44 281.875H1570.31V283.875H1598.44V281.875ZM1569.31 282.875V311H1571.31V282.875H1569.31ZM1570.31 310H1542.19V312H1570.31V310Z" fill="url(#paint0_linear_5257_24729)" mask="url(#path-1-outside-1_5257_24729)"></path>
  <defs>
    <linearGradient id="paint0_linear_5257_24729" x1="-66.9954" y1="79.4133" x2="389.378" y2="1016.21" gradientUnits="userSpaceOnUse">
      <stop stop-color="#FFDCB4"></stop>
      <stop offset="1" stop-color="#B9ADFF"></stop>
    </linearGradient>
  </defs>
</svg>
